<?xml version="1.0" encoding="utf-8"?>
<!-- Generator: Adobe Illustrator 24.1.2, SVG Export Plug-In . SVG Version: 6.00 Build 0)  -->
<svg version="1.1" id="Layer_1" xmlns="http://www.w3.org/2000/svg" xmlns:xlink="http://www.w3.org/1999/xlink" x="0px" y="0px"
	 width="630.5px" height="598.2px" viewBox="0 0 630.5 598.2" style="enable-background:new 0 0 630.5 598.2;" xml:space="preserve"
	>
<style type="text/css">
	.st0{fill:url(#SVGID_1_);}
	.st1{fill:url(#SVGID_2_);}
	.st2{fill:url(#SVGID_3_);}
	.st3{fill:#CCCCCC;}
	.st4{fill:url(#SVGID_4_);}
	.st5{fill:url(#SVGID_5_);}
	.st6{fill:none;stroke:#333333;stroke-width:4.32;stroke-linecap:round;stroke-linejoin:round;}
	.st7{fill:url(#SVGID_6_);stroke:#33317A;stroke-width:8.64;stroke-linecap:round;stroke-linejoin:round;}
	.st8{fill:url(#SVGID_7_);}
	.st9{fill:none;stroke:#333333;stroke-width:3;stroke-linecap:round;stroke-linejoin:round;}
	.st10{fill:url(#SVGID_8_);stroke:#484848;stroke-width:4.32;stroke-linecap:round;stroke-linejoin:round;}
	.st11{fill:url(#SVGID_9_);stroke:#484848;stroke-width:4.32;stroke-linecap:round;stroke-linejoin:round;}
	.st12{fill:url(#SVGID_10_);stroke:#484848;stroke-width:4.32;stroke-linecap:round;stroke-linejoin:round;}
	.st13{fill:url(#SVGID_11_);stroke:#484848;stroke-width:4.32;stroke-linecap:round;stroke-linejoin:round;}
	.st14{fill:url(#SVGID_12_);stroke:#484848;stroke-width:4.32;stroke-linecap:round;stroke-linejoin:round;}
	.st15{fill:url(#SVGID_13_);stroke:#484848;stroke-width:4.32;stroke-linecap:round;stroke-linejoin:round;}
	.st16{fill:url(#SVGID_14_);stroke:#484848;stroke-width:4.32;stroke-linecap:round;stroke-linejoin:round;}
	.st17{fill:url(#SVGID_15_);stroke:#484848;stroke-width:4.32;stroke-linecap:round;stroke-linejoin:round;}
	.st18{fill:url(#SVGID_16_);stroke:#484848;stroke-width:4.32;stroke-linecap:round;stroke-linejoin:round;}
	.st19{fill:url(#SVGID_17_);stroke:#484848;stroke-width:4.32;stroke-linecap:round;stroke-linejoin:round;}
</style>
<g>
	
		<radialGradient id="SVGID_1_" cx="482.339" cy="367.4518" r="69.9438" gradientTransform="matrix(1 0 0 1 0 -213.8401)" gradientUnits="userSpaceOnUse">
		<stop  offset="0.43" style="stop-color:#FFFFFF"/>
		<stop  offset="0.64" style="stop-color:#7A7A7A"/>
		<stop  offset="0.99" style="stop-color:#000000"/>
	</radialGradient>
	<path class="st0" d="M512.3,133c4.8-0.6,8.4-0.6,11.1,0v0.6c6.9,4.8,11.1,9,11.1,14.4c-2.7,7.8-10.5,17.4-23.7,27.6
		c-15.3,11.7-36.9,23.7-63.6,36c-12.3,5.4-24.3,10.5-37.5,15.9c-15.3,5.7-12.6,46.5-1.5,42.3c20.1-7.5,38.7-14.7,55.5-22.8
		c29.1-13.8,52.8-27,70.8-40.8c22.8-17.4,36-33.9,38.1-50.4c4.2-15.3,0.6-29.1-11.1-41.4C556.7,109,510.2,133,512.3,133z"/>
	
		<radialGradient id="SVGID_2_" cx="143.9384" cy="471.2398" r="72.1941" gradientTransform="matrix(1 0 0 1 0 -213.8401)" gradientUnits="userSpaceOnUse">
		<stop  offset="0" style="stop-color:#FFFFFF"/>
		<stop  offset="1" style="stop-color:#000000"/>
	</radialGradient>
	<path class="st1" d="M248.6,272.5c-11.7,2.1-22.8,4.2-33.3,5.7l0.6-0.6c-22.2,3.3-41.4,4.8-57.6,5.4h-0.6
		c-14.4,0-25.5-1.2-32.4-3.6c-4.8-2.1-9.6-1.5-14.7,0.6c-5.4,2.1-8.4,5.7-10.5,10.5c-2.1,5.4-1.5,10.2,0.6,14.7
		c2.1,4.8,5.7,8.4,10.5,10.5c10.5,3.6,25.8,5.7,46.5,5.7c18-0.6,38.7-2.1,63-5.4h0.6c12.3-1.5,24.3-3.6,36.9-6.3
		C270.5,307.9,260.9,269.8,248.6,272.5z"/>
	
		<radialGradient id="SVGID_3_" cx="179.6609" cy="319.3369" r="165.4146" gradientTransform="matrix(1 0 0 1 0 -213.8401)" gradientUnits="userSpaceOnUse">
		<stop  offset="0.8128" style="stop-color:#FFFFFF"/>
		<stop  offset="1" style="stop-color:#575757"/>
	</radialGradient>
	<path class="st2" d="M246.2,63.1c-11.1,3.6-21.6,7.5-32.4,11.1c-24.3,9.6-45.9,18.9-65.7,29.1h0.6c-21.3,10.5-38.1,21.3-51.9,32.4
		v-0.6c-16.2,12.6-27.3,24.9-33.3,36.3v0.6c-9,16.5-9.6,31.8-2.1,45.9c4.8,13.8,18.6,21.6,42.3,22.8c13.8,1.2,32.4-1.2,55.5-5.4
		c11.7-2.7,25.5-5.7,40.2-10.2c9-2.7-1.5-40.2-10.5-37.5c-13.8,3.6-26.4,6.9-37.5,9c-18.9,3.6-33.9,5.4-45.6,4.8
		c-4.8,0-7.8-0.6-9-0.6l-0.6-0.6c-1.2-3.3-0.6-6.9,1.5-11.1v-0.6c4.2-7.5,11.7-15.3,22.8-23.7c12.3-9.6,27-18.9,45-27.9
		c18-9.6,38.7-18.6,61.5-27.6v0.6c6.3-2.7,13.2-4.8,19.5-6.9C264.2,98.5,260,58.3,246.2,63.1z"/>
	<path class="st3" d="M407.9,65.2c12.6-1.5,24.9-2.7,36.6-3.3c23.4-2.1,44.4-1.5,63,0.6c5.4,0.6,10.2-1.2,14.4-4.2
		c4.2-3.6,6.3-7.8,7.5-13.2c0.6-5.4-1.2-10.5-4.2-14.4c-3.6-4.2-7.8-6.9-13.2-6.9c-20.7-2.1-44.4-2.1-69.9-0.6
		c-16.5,1.2-33.3,3.3-51.3,5.7C382.7,29.8,396.8,66.7,407.9,65.2z"/>
	
		<radialGradient id="SVGID_4_" cx="499.2701" cy="203.8939" r="92.4969" gradientTransform="matrix(1 0 0 1 0 -213.8401)" gradientUnits="userSpaceOnUse">
		<stop  offset="0" style="stop-color:#FFFFFF"/>
		<stop  offset="1" style="stop-color:#000000"/>
	</radialGradient>
	<path class="st4" d="M407.9,65.2c12.6-1.5,24.9-2.7,36.6-3.3c23.4-2.1,44.4-1.5,63,0.6c5.4,0.6,10.2-1.2,14.4-4.2
		c4.2-3.6,6.3-7.8,7.5-13.2c0.6-5.4-1.2-10.5-4.2-14.4c-3.6-4.2-7.8-6.9-13.2-6.9c-20.7-2.1-44.4-2.1-69.9-0.6
		c-16.5,1.2-33.3,3.3-51.3,5.7C382.7,29.8,396.8,66.7,407.9,65.2z"/>
	
		<linearGradient id="SVGID_5_" gradientUnits="userSpaceOnUse" x1="155.3166" y1="342.1576" x2="127.1187" y2="320.7277" gradientTransform="matrix(1 0 0 1 0 -213.8401)">
		<stop  offset="0" style="stop-color:#000000"/>
		<stop  offset="1" style="stop-color:#FFFFFF"/>
	</linearGradient>
	<path class="st5" d="M83.6,182.8c0,21.3,13.2,19.5,13.2,19.5l0,0l-0.6-0.6c-1.2-3.3-0.6-6.9,1.5-11.1V190
		c4.2-7.5,11.7-15.3,22.8-23.7c12.3-9.6,27-18.9,45-27.9c18-9.6,38.7-18.6,61.5-27.6v0.6c6.3-2.7,13.2-4.8,19.5-6.9
		c7.5-2.7,10.5-11.7,10.5-20.7c-8.4-1.2-17.4-1.5-26.4-1.5c-19.5,0-37.5,2.7-54.6,7.8c-10.2,4.8-19.5,9-29.1,13.8h0.6
		c-6.3,3.3-12.6,6.9-18.6,10.2C107,131.2,83.6,155.8,83.6,182.8z"/>
	<path class="st6" d="M529.1,45.1c0.6-5.4-1.2-10.5-4.2-14.4c-3.6-4.2-7.8-6.9-13.2-6.9c-20.7-2.1-44.4-2.1-69.9-0.6
		c-23.7,1.5-49.2,4.8-76.2,9.6c-25.8,4.8-51.9,10.5-77.7,18s-50.7,15.3-74.1,23.7c-24.3,9.6-45.9,18.9-65.7,29.1h0.6
		c-21,10.8-38.1,21.3-51.9,32.4v-0.6c-16.2,12.9-27.3,24.9-33.3,36.6v0.6c-9,16.5-9.6,31.8-2.1,45.9c4.8,13.8,18.6,20.7,41.7,21.6
		c13.8,1.2,32.4,0,55.5-4.8c18.9-3.6,41.7-10.2,69.3-18c20.1-6.3,45.9-14.4,77.1-24.9l77.1-25.5c27.9-9.6,51.3-16.5,69.3-21.6
		c21.6-6.3,39-10.5,51.9-12.3c9-1.2,15.3-1.5,18.6-1.2v0.6c6.9,4.8,11.1,9,11.1,14.4c-2.7,7.8-10.5,17.4-23.7,27.6
		c-15.3,11.7-36.9,23.7-63.6,36c-25.8,11.7-54.6,22.2-85.8,32.7h-0.6c-24.3,7.8-49.2,14.7-75,20.7c-24.9,5.7-48.6,10.2-70.8,13.8
		l0.6-0.6c-22.2,3.3-41.4,4.8-57.6,5.4h-0.6c-14.4,0-25.5-1.2-32.4-3.6c-4.8-2.1-9.6-1.5-14.7,0.6c-5.4,2.1-8.4,5.7-10.5,10.5
		c-2.1,5.4-1.5,10.2,0.6,14.7s5.7,8.4,10.5,10.5c10.5,3.6,25.8,5.7,46.5,5.7c18-0.6,38.7-2.1,63-5.4h0.6c23.4-3.3,48-7.8,73.5-13.8
		h0.6c26.4-6.3,52.5-13.8,77.7-21.6c33.3-10.5,63.6-22.2,90.6-34.5c29.1-13.8,52.8-27,70.8-40.8c22.8-17.4,36-33.9,38.1-50.4
		c5.7-21.6-3.6-39.6-28.5-55.5c-7.8-6.3-22.2-7.8-44.4-4.8h-0.6c-14.4,2.1-33.3,6.3-57,13.2c-18,5.4-41.7,12.3-70.8,22.2l-77.1,25.5
		c-30.6,10.2-56.1,18-75.6,23.7c-26.4,7.8-48,13.8-66,17.4c-18.9,3.6-33.9,5.4-45.6,4.8c-4.8,0-7.8-0.6-9-0.6l-0.6-0.6
		c-1.2-3.3-0.6-6.9,1.5-11.1v-0.6c4.2-7.5,11.7-15.3,22.8-23.7c12.3-9.6,27-18.9,45-27.9c18-9.6,38.7-18.6,61.5-27.6v0.6
		c22.2-8.4,45.9-16.5,70.8-23.4c24.9-7.5,49.8-13.2,74.7-17.4c24.9-4.8,49.2-7.8,72-9c23.4-2.1,44.4-1.5,63,0.6
		c5.4,0.6,10.2-1.2,14.4-4.2C526.4,54.1,528.5,49.9,529.1,45.1z"/>
	
		<radialGradient id="SVGID_6_" cx="343.6949" cy="312.8407" r="150.027" gradientTransform="matrix(1 0 0 1 0 -213.8401)" gradientUnits="userSpaceOnUse">
		<stop  offset="4.000000e-02" style="stop-color:#FFFFFF"/>
		<stop  offset="4.000000e-02" style="stop-color:#FFFFFF"/>
		<stop  offset="0.23" style="stop-color:#6E93E1"/>
		<stop  offset="1" style="stop-color:#363499"/>
	</radialGradient>
	<circle class="st7" cx="316.4" cy="169.9" r="165.6"/>
	
		<linearGradient id="SVGID_7_" gradientUnits="userSpaceOnUse" x1="333.5745" y1="400.73" x2="322.2813" y2="363.8405" gradientTransform="matrix(1 0 0 1 0 -213.8401)">
		<stop  offset="0" style="stop-color:#000000"/>
		<stop  offset="0.9893" style="stop-color:#FFFFFF"/>
	</linearGradient>
	<path class="st8" d="M150.5,197.5c-2.1,0.6-51.9,11.1-60.3,3.3c-2.7-2.7,5.4,3.6,13.2,13.8c1.2,1.5,0,3.6-1.2,6.3
		c-0.6,0.6-0.6,1.2-1.2,1.5c0,0.6-0.6,1.5-0.6,2.1c0,1.2-0.6,1.5-1.2,2.7c-0.6,2.7-2.1,5.4-2.7,6.9c0,0.6,1.2,1.2,1.2,2.1
		c0,0.6-1.2,0.6-1.2,1.2c0,0.6-1.5,0.6-1.2,1.2v0.6c1.2,0,3.3,0.6,3.6,0.6c0.6,0,4.8,0.6,11.1,0.6s14.4,0,21.3-0.6
		c4.2-0.6,8.4-1.2,12.6-1.5c5.4-1.2,10.5-1.5,13.8-2.1c3.3-0.6,4.8,0,5.4,0c18-3.6,39.6-9.6,65.1-16.8c20.1-6.3,45.9-14.4,77.1-24.9
		l77.1-25.5c15.3-5.4,29.7-9.6,41.7-13.8c10.2-3.3,18.9-5.7,27-7.8c10.2-3.3,18.6-5.4,27-7.5c9.6-2.1,18-4.2,25.5-5.4
		c9-1.2,15.3-1.5,18.6-1.2v0.6c2.7,1.5,14.7,0.6,20.7,9.6c9.6,14.7,14.4,41.4,18.6,36c5.7-7.8,9-15.3,10.2-22.8
		c5.7-21.6-3.6-38.7-28.5-54.6c-7.8-6.3-22.2-7.8-44.4-4.8h-0.6c-8.4,1.5-18.9,3.6-31.2,6.3c-7.8,2.1-16.5,3.3-25.8,5.7
		c-9,2.7-19.5,5.7-31.2,9.6c-11.7,3.6-24.9,7.8-39.6,12.6L293.3,157c-21.6,6.9-40.8,13.2-57,18.6L150.5,197.5z"/>
	<path class="st9" d="M470.3,100.6c-7.8,2.1-18.9,5.4-27.9,7.8c-18,5.4-41.7,12.3-70.8,22.2l-77.1,25.5
		c-23.4,7.8-43.5,13.8-60.3,18.9c-7.8,1.5-13.2,2.7-15.9,3.6c-25.8,7.5-88.2,25.8-113.1,23.4"/>
	<path class="st9" d="M159.2,235.6c18-3.6,44.4-10.5,69.9-18c20.1-6.3,45.9-14.4,77.1-24.9l77.1-25.5c27.9-9.6,51.3-16.5,69.3-21.6
		c10.2-3.3,21.3-5.7,29.1-7.8"/>
</g>
<g>
	
		<linearGradient id="SVGID_8_" gradientUnits="userSpaceOnUse" x1="106.9919" y1="688.1179" x2="206.0017" y2="589.1087" gradientTransform="matrix(1 0 0 1 0 -213.8401)">
		<stop  offset="0" style="stop-color:#999999"/>
		<stop  offset="0.98" style="stop-color:#F3F3F3"/>
	</linearGradient>
	<path class="st10" d="M203.1,383.2c-1.2-2.1-3.2-3.7-5.7-4.4c-42.6-12.3-70.1-10.3-82.4,5.3c-4.4,5-6.9,9.9-7.8,15.3
		c-0.9,5-0.4,9.9,2,14.7H109c2,3.4,4.4,6.9,7.8,9.8h0.4c2.8,2.1,5.7,4.1,9.1,5.7c2.1,1.2,7.8,2,16.5,2.1c2,0.4,5,0.4,9.9,0.4
		c4.4,0.4,7.8,0.4,10.3,0.4l0,0c7.8,0.4,15.6,0.9,18.1,1.6c2.5,0.9,6.9,5.3,7.3,7.5c0.4,2.1,0,0,0,0c0.7,1.2,0.9,1.6,0.7,4.6
		c-0.4,3.2-1.6,2.5-2.8,4.1v-0.4c-1.6,1.2-3.7,2.1-6.9,3.2c-4.6,0.9-10.3,2-16.9,2c-6.6,0.4-13.1,0-19.7-0.7
		c-6.2-0.9-11.9-2-16.5-3.2c-2.1-0.7-4.6-0.7-6.9,0.7c-2.1,0.9-3.7,2.8-4.6,5.3c-0.9,2.1-0.7,4.6,0.7,7.3c1.2,2.1,3.2,3.7,5.7,4.4
		c5.7,2,12.3,3.2,20.1,4.1c7.5,0.7,15.1,0.9,22.6,0.9c8.2-0.4,15.1-1.2,21-2.5c8.2-2,13.9-5,16.5-9.1h0.4c2.5-3.2,4.4-6,5.3-8.5
		v-0.4c1.2-3.2,2-6.2,2-9.4v-0.4c-0.4-2.1,0-5.7-1.2-9.1c-0.4-1.6-0.9-2.5-3.4-8.2c-2.5-5.3-8.5-8.7-18.5-11l0,0
		c-5-0.9-12.3-1.6-21.3-2c-2.5-0.4-6.2-0.4-11-0.4c-4.8,0-7.8,0-9.8,0c-5,0-8.2-0.4-9.4-0.7c-2-0.9-3.2-1.6-4.4-2.8
		c-1.2-1.2-2.5-2.5-3.2-3.7v-0.4c-0.7-0.9-0.9-2-0.7-3.2c0.7-2,1.6-4.1,3.4-6.2c9.4-9.1,30.4-9.1,62.9,0.4c2.5,0.7,5,0.4,6.9-0.9
		c2.5-1.2,4.1-3.2,4.4-5.7C204.7,387.8,204.4,385.3,203.1,383.2z"/>
	
		<linearGradient id="SVGID_9_" gradientUnits="userSpaceOnUse" x1="212.1891" y1="679.7459" x2="308.5881" y2="583.3466" gradientTransform="matrix(1 0 0 1 0 -213.8401)">
		<stop  offset="0" style="stop-color:#999999"/>
		<stop  offset="0.98" style="stop-color:#F3F3F3"/>
	</linearGradient>
	<path class="st11" d="M295.3,375.4c-2-1.6-4.1-2.5-6.6-2.5H226c-2.5,0-4.6,0.9-6.6,2.5c-2,2-2.8,4.1-2.8,6.6v77.6
		c0,2.5,0.9,4.6,2.8,6.6c2,2,4.1,2.8,6.6,2.8h62.7c2.5,0,4.6-0.9,6.6-2.8c1.6-1.6,2.5-4.1,2.5-6.6s-0.9-4.6-2.5-6.6
		c-2-1.6-4.1-2.5-6.6-2.5h-53.3v-20.2h39.1c2.5,0,4.6-0.9,6.6-2.8c1.6-1.6,2.5-4.1,2.5-6.6c0-2.5-0.9-4.6-2.5-6.6
		c-2-1.6-4.1-2.5-6.6-2.5h-39.1v-20.4h53.3c2.5,0,4.6-0.9,6.6-2.8c1.6-1.6,2.5-3.7,2.5-6.6C298.1,379.4,297,377.3,295.3,375.4z"/>
	
		<linearGradient id="SVGID_10_" gradientUnits="userSpaceOnUse" x1="304.0501" y1="690.1514" x2="410.1591" y2="584.0428" gradientTransform="matrix(1 0 0 1 0 -213.8401)">
		<stop  offset="0" style="stop-color:#999999"/>
		<stop  offset="0.98" style="stop-color:#F3F3F3"/>
	</linearGradient>
	<path class="st12" d="M403.2,386.4c-0.4-2.8-2-5-3.7-6.2c-17.2-12.3-36-14.7-54.2-11.5c-7.3,1.6-9.4,1.6-17.2,5.3
		c-7.8,3.7-13.1,11-13.1,11c-3.7,4.1-5.7,9.1-8.2,15.6c-2.5,6.6-2.5,9.8-2.8,17.9s0.7,15.6,3.2,22.6c2.1,7.3,6,13.5,10.7,18.5l0,0
		c4.6,5.3,10.3,9.8,17.2,12.3c6.6,2.8,14,4.4,21.8,4.4c18.8,0,32.3-4.4,40.7-12.6c9.8-8.7,13.9-21.7,12.3-39.1
		c-0.4-2.8-1.2-4.6-2.8-6.6c-2-1.6-3.7-2.5-6.2-2.5h-40.7c-2.5,0-4.6,0.9-6.6,2.8s-2.8,4.4-2.8,7.3s0.9,5.3,2.8,7.3
		c2,2,4.1,3.2,6.6,3.2h31.3c-0.7,5-2.5,9.4-5.7,12.6c-6,5.3-15.6,7.8-28.4,7.8c-5.3,0-10.7-0.9-15.1-2.8l-0.4-0.4
		c-4.1-1.6-7.5-4.1-10.3-7.5c-2.8-3.2-5-7.3-6.6-11.2c-1.6-4.6-2.1-9.8-2-15.1c0-5.7,0.9-8.7,2-12.8c0.9-2.8,2-5.3,3.7-7.3
		c0,0,2.8-4.4,7.5-6.6c4.6-2.5,8.2-3.2,13.9-4.6h0.4c13.9-3.4,27-0.7,39.4,8.7c2.1,1.6,4.4,2,6.9,1.6c2.5-0.7,4.4-2,6-4.4
		C403.2,391.7,403.9,389.2,403.2,386.4z"/>
	
		<linearGradient id="SVGID_11_" gradientUnits="userSpaceOnUse" x1="426.1194" y1="694.152" x2="529.9905" y2="590.2819" gradientTransform="matrix(1 0 0 1 0 -213.8401)">
		<stop  offset="0" style="stop-color:#999999"/>
		<stop  offset="0.98" style="stop-color:#F3F3F3"/>
	</linearGradient>
	<path class="st13" d="M521.7,468.4c1.6-2.1,2.1-4.4,2-6.9c-9.8-64.8-27.5-96.8-53.3-95.2c-25.7-1.6-43.5,29.1-52.9,92
		c-0.4,2.5,0.4,4.6,2,6.9c1.6,2.1,3.4,3.4,6,3.7s4.6-0.4,6.9-1.6c2-1.6,3.2-3.4,3.7-6c1.2-7.8,2.5-15.1,3.7-21.7l0,0h60.7
		c1.6,7.5,3.2,15.6,4.4,24.7c0.4,2.5,1.6,4.4,3.7,6c2,1.6,4.4,2.1,6.9,1.6C517.9,471.4,520.1,470.2,521.7,468.4z M444.3,420.8
		c6.9-23.1,15.6-35.2,25.9-35.7c9.9,0.9,18.8,12.8,25.4,35.7H444.3z"/>
</g>
<g>
	
		<linearGradient id="SVGID_12_" gradientUnits="userSpaceOnUse" x1="0.4807" y1="807.1506" x2="101.3589" y2="706.2718" gradientTransform="matrix(1 0 0 1 0 -213.8401)">
		<stop  offset="0" style="stop-color:#999999"/>
		<stop  offset="0.98" style="stop-color:#F3F3F3"/>
	</linearGradient>
	<path class="st14" d="M98.5,500.4c-1.2-2.1-3.2-3.7-5.7-4.4c-42.6-11.9-70.1-10.3-82.4,5.3c-4.4,5-6.9,9.9-7.8,15.3
		c-0.9,5-0.4,9.9,2,14.7H4.2c2,3.4,4.4,6.9,7.8,9.8h0.4c2.8,2.1,5.7,4.1,9.1,5.7c2.1,1.2,7.8,2,16.5,2.1c2,0,5,0,9.9,0
		c4.4,0.4,7.8,0.4,10.3,0.4h0.4c7.8,0,15.6,0.9,18.1,1.6c2.5,0.9,6.9,5.3,7.3,7.5c0.4,2.1,0,0,0,0c0.4,1.2,0.9,1.6,0.7,4.6
		c-0.4,3.2-1.6,2.5-2.8,4.1v-0.2c-1.6,1.2-3.7,2.1-6.9,3.2c-4.6,0.9-10.3,2-16.9,2c-6.6,0.4-13.1,0-19.7-0.7
		c-6.2-0.9-11.9-2-16.5-3.2c-2.1-0.7-4.6-0.7-6.9,0.7c-2.1,0.9-4.1,2.8-4.6,5.3c-0.9,2.1-0.4,4.6,0.7,7.3c1.2,2.1,3.2,3.7,5.7,4.4
		c5.7,2,12.3,3.2,20.1,4.1c7.5,0.7,15.1,0.9,22.6,0.9c8.2-0.4,15.1-1.2,21-2.5c8.2-2,13.9-5,16.5-9.1H97c2.5-3.2,4.4-6,5.3-8.5v-0.4
		c1.2-3.2,2-6.2,2-9.4v-0.4c-0.4-2.1,0-5.7-1.2-9.1c-0.4-1.6-0.9-2.5-3.4-8.2c-2.5-5.3-8.5-8.7-18.5-11h-0.4c-5-0.9-12.3-1.6-21.3-2
		c-2.5,0-6.2,0-11-0.4c-4.6,0-7.8,0-9.8-0.4c-5,0-8.2-0.4-9.4-0.7c-2-0.9-3.2-1.6-4.6-2.8c-1.2-1.2-2.5-2.5-3.2-3.7l0,0
		c-0.7-0.9-0.9-2-0.4-3.2c0.4-2,1.6-4.1,3.4-6.2c9.4-9.1,30.4-9.1,62.9,0.4c2.5,0.7,4.6,0.4,6.9-0.9c2.5-1.2,4.1-3.2,4.6-5.7
		C100.1,504.8,99.9,502.7,98.5,500.4z"/>
	
		<linearGradient id="SVGID_13_" gradientUnits="userSpaceOnUse" x1="116.548" y1="819.3607" x2="225.6485" y2="710.2607" gradientTransform="matrix(1 0 0 1 0 -213.8401)">
		<stop  offset="0" style="stop-color:#999999"/>
		<stop  offset="0.98" style="stop-color:#F3F3F3"/>
	</linearGradient>
	<path class="st15" d="M123.8,591.3c2.1-1.6,3.4-3.4,3.7-6c1.2-7.8,2.5-15.1,3.7-21.7H192c1.6,7.5,3.2,15.6,4.4,24.7
		c0.4,2.5,1.6,4.4,3.7,6c2,1.6,4.4,2.1,6.9,1.6c2.5-0.4,4.4-1.6,6-3.4c1.6-2.1,2.1-4.4,2-6.9c-9.8-64.8-27.5-96.8-53.3-95.2
		c-25.7-1.6-43.1,29.1-52.9,92c-0.4,2.5,0.4,4.6,1.6,6.9c1.6,2.1,3.4,3.4,6.2,3.7C119.6,593.4,121.7,592.7,123.8,591.3z
		 M136.1,544.9c6.9-23.1,15.6-35.2,25.9-35.7c10.3,0.9,18.8,12.8,25.7,35.7C187.8,544.9,136.1,544.9,136.1,544.9z"/>
	
		<linearGradient id="SVGID_14_" gradientUnits="userSpaceOnUse" x1="191.5467" y1="794.9692" x2="293.5465" y2="692.9688" gradientTransform="matrix(1 0 0 1 0 -213.8401)">
		<stop  offset="0" style="stop-color:#999999"/>
		<stop  offset="0.98" style="stop-color:#F3F3F3"/>
	</linearGradient>
	<path class="st16" d="M295.6,497.5c-2-1.6-4.1-2.5-6.6-2.5h-81.3c-2.5,0-5,0.9-6.6,2.5c-2,2-2.8,4.1-2.8,6.6c0,2.5,0.9,4.6,2.8,6.6
		s4.1,2.8,6.6,2.8h31.3v71.7c0,2.5,0.9,4.6,2.8,6.6s4.1,2.8,6.6,2.8c2.8,0,4.6-0.9,6.6-2.8c2-1.6,2.8-4.1,2.8-6.6v-71.7H289
		c2.5,0,4.6-0.9,6.6-2.8c2-1.6,2.5-4.1,2.5-6.6C298.4,501.6,297.3,499.5,295.6,497.5z"/>
	
		<linearGradient id="SVGID_15_" gradientUnits="userSpaceOnUse" x1="298.425" y1="804.7042" x2="401.5457" y2="701.5842" gradientTransform="matrix(1 0 0 1 0 -213.8401)">
		<stop  offset="0" style="stop-color:#999999"/>
		<stop  offset="0.98" style="stop-color:#F3F3F3"/>
	</linearGradient>
	<path class="st17" d="M405.1,495.7c-2-2-4.1-2.8-6.6-2.8c-2.5,0-4.6,0.9-6.6,2.8c-2,1.6-2.8,4.1-2.8,6.6v46.3c0,3.4-0.7,6.9-2,9.9
		c-1.2,3.2-3.2,6-5.7,8.5c-2.5,2.1-5,4.4-8.5,5.7c-3.2,1.2-6.6,2-9.9,2h-13.9c-3.4,0-6.9-0.7-9.9-2c-3.2-1.2-6-3.2-8.5-5.7
		c-2.5-2.5-4.4-5-5.7-8.2l0,0c-1.2-3.2-2-6.6-2-9.9v-46.7c0-2.5-0.9-4.6-2.5-6.6c-2-2-4.1-2.8-6.6-2.8c-2.5,0-5,0.9-6.6,2.8
		c-2,1.6-2.8,4.1-2.8,6.6v46.3c0,6,1.2,11.9,3.4,17.6l0,0c2.1,5.3,5.3,9.9,9.4,14.4c4.1,4.1,8.7,7.3,14.4,9.8
		c5.7,2.1,11.2,3.4,17.6,3.4h13.9c6.2,0,11.9-0.9,17.6-3.4h-0.4c5.3-2.1,9.9-5.7,14.4-9.8c4.1-4.1,7.3-8.7,9.8-14.4v0.4
		c2.1-5.7,3.4-11.2,3.4-17.6v-46.7C408,499.8,406.9,497.3,405.1,495.7z"/>
	
		<linearGradient id="SVGID_16_" gradientUnits="userSpaceOnUse" x1="415.4028" y1="808.8392" x2="519.2675" y2="704.9741" gradientTransform="matrix(1 0 0 1 0 -213.8401)">
		<stop  offset="0" style="stop-color:#999999"/>
		<stop  offset="0.98" style="stop-color:#F3F3F3"/>
	</linearGradient>
	<path class="st18" d="M417.5,495.7c-1.6,1.6-2.5,3.7-2.5,6.2v80.4c0,2.5,0.9,4.6,2.8,6.6s4.4,2.8,7.3,2.8s5-0.9,6.9-2.8
		c2-1.6,3.2-4.1,3.2-6.6v-71.7c21.7-1.2,37.8,0,49.5,3.2c8.7,2.5,13.1,6.9,13.9,12.8c0.4,4.6-2,8.2-6,10.3
		c-6.6,2.8-16.5,3.4-29.5,2.1c-2.1-0.4-4.4,0.4-6.2,1.2c-2,0.9-3.4,2.5-4.1,4.6c-0.9,2-0.9,3.7-0.4,6c0.7,2,2,3.4,3.7,4.6l49.7,34.1
		c2.1,1.6,4.6,2.1,7.3,1.6c2.8-0.4,5-1.6,6.6-3.7c1.6-2,2.1-4.4,2-6.9c-0.7-2.5-2-4.6-4.1-6.2l-26.3-17.9c3.7-0.9,7.3-2,9.9-3.4
		c11.2-5.3,16.9-14,17.2-26.6c0.7-14.7-8.7-25-27.5-30.7c-14.7-4.6-36.9-5.7-66.4-3.4C421.6,492.9,419.5,493.8,417.5,495.7z"/>
	
		<linearGradient id="SVGID_17_" gradientUnits="userSpaceOnUse" x1="528.8555" y1="807.9556" x2="629.7386" y2="707.0724" gradientTransform="matrix(1 0 0 1 0 -213.8401)">
		<stop  offset="0" style="stop-color:#999999"/>
		<stop  offset="0.98" style="stop-color:#F3F3F3"/>
	</linearGradient>
	<path class="st19" d="M533.1,497.3c-1.2,1.6-1.6,3.2-1.6,5.3v80.8c0,2.5,0.9,4.6,2.8,6.6c1.6,2,4.1,2.8,6.6,2.8
		c2.5,0,4.6-0.9,6.6-2.8c1.6-1.6,2.5-4.1,2.5-6.6v-57.7l62,64.1c1.6,1.2,2.8,2.1,5,2.8c2,0.4,3.4,0,5.3-0.4c2-0.9,3.2-2,4.4-3.4
		c1.2-1.4,1.6-3.2,1.6-5v-81.3c0-2.5-0.9-4.6-2.8-6.6c-2-1.6-4.1-2.5-6.6-2.5c-2.5,0-4.6,0.9-6.6,2.5c-2,2-2.8,4.1-2.8,6.6v57.5
		l-62-64.1c-1.6-1.2-2.8-2.1-5-2.5c-2-0.4-3.7,0-5.3,0.7C535.6,494.9,534,495.7,533.1,497.3z"/>
</g>
</svg>
